<svg width="64" height="108" viewBox="0 0 64 108" fill="none" xmlns="http://www.w3.org/2000/svg">
<path d="M24.2929 29.2929C23.9024 29.6834 23.9024 30.3166 24.2929 30.7071C24.6834 31.0976 25.3166 31.0976 25.7071 30.7071L24.2929 29.2929ZM32 23L32.7071 22.2929C32.3166 21.9024 31.6834 21.9024 31.2929 22.2929L32 23ZM38.2929 30.7071C38.6834 31.0976 39.3166 31.0976 39.7071 30.7071C40.0976 30.3166 40.0976 29.6834 39.7071 29.2929L38.2929 30.7071ZM31 41C31 41.5523 31.4477 42 32 42C32.5523 42 33 41.5523 33 41H31ZM25.7071 30.7071L32.7071 23.7071L31.2929 22.2929L24.2929 29.2929L25.7071 30.7071ZM31.2929 23.7071L38.2929 30.7071L39.7071 29.2929L32.7071 22.2929L31.2929 23.7071ZM31 23V41H33V23H31Z" fill="#3D3B39"/>
<!-- <path fill-rule="evenodd" clip-rule="evenodd" d="M24.3347 75.6705C23.8884 75.2312 23.8884 74.5188 24.3347 74.0795L31.1919 67.3295C31.6382 66.8902 32.3618 66.8902 32.8081 67.3295L39.6653 74.0795C40.1116 74.5188 40.1116 75.2312 39.6653 75.6705C39.219 76.1098 38.4953 76.1098 38.049 75.6705L33.1429 70.841L33.1429 83.875C33.1429 84.4963 32.6312 85 32 85C31.3688 85 30.8571 84.4963 30.8571 83.875L30.8571 70.841L25.951 75.6705C25.5047 76.1098 24.781 76.1098 24.3347 75.6705Z" fill="#3D3B39"/> -->
<!-- <rect x="0.5" y="0.5" width="63" height="107" rx="4.5" stroke="#7F5AF0" stroke-dasharray="10 5"/>  -->
</svg>
