<svg width="20" height="20" viewBox="0 0 20 20" fill="none" xmlns="http://www.w3.org/2000/svg">
<path d="M2.62897 14.9332C2.14817 15.2049 1.97872 15.815 2.25048 16.2958C2.52224 16.7766 3.13231 16.9461 3.61311 16.6743L2.62897 14.9332ZM16.3869 16.6743C16.8677 16.9461 17.4778 16.7766 17.7495 16.2958C18.0213 15.815 17.8518 15.2049 17.371 14.9332L16.3869 16.6743ZM12 8C12 9.10457 11.1046 10 10 10V12C12.2091 12 14 10.2091 14 8H12ZM10 10C8.89543 10 8 9.10457 8 8H6C6 10.2091 7.79086 12 10 12V10ZM8 8C8 6.89543 8.89543 6 10 6V4C7.79086 4 6 5.79086 6 8H8ZM10 6C11.1046 6 12 6.89543 12 8H14C14 5.79086 12.2091 4 10 4V6ZM10 13C7.3229 13 4.80679 13.7022 2.62897 14.9332L3.61311 16.6743C5.49854 15.6086 7.67669 15 10 15V13ZM17.371 14.9332C15.1932 13.7022 12.6771 13 10 13V15C12.3233 15 14.5015 15.6086 16.3869 16.6743L17.371 14.9332ZM18 10C18 14.4183 14.4183 18 10 18V20C15.5228 20 20 15.5228 20 10H18ZM10 18C5.58172 18 2 14.4183 2 10H0C0 15.5228 4.47715 20 10 20V18ZM2 10C2 5.58172 5.58172 2 10 2V0C4.47715 0 0 4.47715 0 10H2ZM10 2C14.4183 2 18 5.58172 18 10H20C20 4.47715 15.5228 0 10 0V2Z" fill="#3D3B39"/>
</svg>
