<svg width="65" height="65" viewBox="0 0 65 65" fill="none" xmlns="http://www.w3.org/2000/svg">
<path d="M39.7071 34.7071C40.0976 34.3166 40.0976 33.6834 39.7071 33.2929C39.3166 32.9024 38.6834 32.9024 38.2929 33.2929L39.7071 34.7071ZM32 41L31.2929 41.7071C31.4804 41.8946 31.7348 42 32 42C32.2652 42 32.5196 41.8946 32.7071 41.7071L32 41ZM25.7071 33.2929C25.3166 32.9024 24.6834 32.9024 24.2929 33.2929C23.9024 33.6834 23.9024 34.3166 24.2929 34.7071L25.7071 33.2929ZM33 23C33 22.4477 32.5523 22 32 22C31.4477 22 31 22.4477 31 23L33 23ZM38.2929 33.2929L31.2929 40.2929L32.7071 41.7071L39.7071 34.7071L38.2929 33.2929ZM32.7071 40.2929L25.7071 33.2929L24.2929 34.7071L31.2929 41.7071L32.7071 40.2929ZM33 41L33 23L31 23L31 41H33Z" fill="#3D3B39"/>
<!-- <path fill-rule="evenodd" clip-rule="evenodd" d="M39.4205 76.3295C39.8598 76.7688 39.8598 77.4812 39.4205 77.9205L32.6705 84.6705C32.2312 85.1098 31.5188 85.1098 31.0795 84.6705L24.3295 77.9205C23.8902 77.4812 23.8902 76.7688 24.3295 76.3295C24.7688 75.8902 25.4812 75.8902 25.9205 76.3295L30.75 81.159L30.75 68.125C30.75 67.5037 31.2537 67 31.875 67C32.4963 67 33 67.5037 33 68.125L33 81.159L37.8295 76.3295C38.2689 75.8902 38.9812 75.8902 39.4205 76.3295Z" fill="#3D3B39"/> -->
<!-- <rect x="0.5" y="0.5" width="63" height="107" rx="4.5" stroke="#7F5AF0" stroke-dasharray="10 5"/> -->
</svg>
