<svg width="18" height="18" viewBox="0 0 18 18" fill="none" xmlns="http://www.w3.org/2000/svg">
<path d="M2 1C2 0.447715 1.55228 0 1 0C0.447715 0 0 0.447715 0 1H2ZM1 6H0C0 6.55228 0.447715 7 1 7L1 6ZM15.9458 8.12374C16.0141 8.67178 16.5138 9.06065 17.0618 8.99231C17.6099 8.92397 17.9988 8.4243 17.9304 7.87626L15.9458 8.12374ZM6 7C6.55228 7 7 6.55228 7 6C7 5.44772 6.55228 5 6 5V7ZM16 17C16 17.5523 16.4477 18 17 18C17.5523 18 18 17.5523 18 17H16ZM17 12H18C18 11.4477 17.5523 11 17 11V12ZM12 11C11.4477 11 11 11.4477 11 12C11 12.5523 11.4477 13 12 13V11ZM2.05421 9.87626C1.98587 9.32822 1.48619 8.93935 0.938154 9.00769C0.390114 9.07603 0.0012396 9.5757 0.0695792 10.1237L2.05421 9.87626ZM0 1V6H2V1H0ZM9 2C12.5689 2 15.5153 4.67174 15.9458 8.12374L17.9304 7.87626C17.3767 3.43564 13.5903 0 9 0V2ZM2.50845 6.37522C3.54763 3.80802 6.06387 2 9 2V0C5.22137 0 1.98895 2.32832 0.654579 5.62478L2.50845 6.37522ZM1 7H1.58152V5H1V7ZM1.58152 7H6V5H1.58152V7ZM18 17V12H16V17H18ZM15.4915 11.6248C14.4524 14.192 11.9361 16 9 16V18C12.7786 18 16.011 15.6717 17.3454 12.3752L15.4915 11.6248ZM17 11H16.4185V13H17V11ZM16.4185 11H12V13H16.4185V11ZM9 16C5.43109 16 2.48467 13.3283 2.05421 9.87626L0.0695792 10.1237C0.623317 14.5644 4.40967 18 9 18V16Z" fill="#3D3B39"/>
</svg>
