<svg width="64" height="64" viewBox="0 0 64 64" fill="none" xmlns="http://www.w3.org/2000/svg">
<path d="M26 36C26 36.5523 26.4477 37 27 37C27.5523 37 28 36.5523 28 36H26ZM27 24L27.7071 23.2929C27.3166 22.9024 26.6834 22.9024 26.2929 23.2929L27 24ZM22.2929 27.2929C21.9024 27.6834 21.9024 28.3166 22.2929 28.7071C22.6834 29.0976 23.3166 29.0976 23.7071 28.7071L22.2929 27.2929ZM30.2929 28.7071C30.6834 29.0976 31.3166 29.0976 31.7071 28.7071C32.0976 28.3166 32.0976 27.6834 31.7071 27.2929L30.2929 28.7071ZM38 28C38 27.4477 37.5523 27 37 27C36.4477 27 36 27.4477 36 28H38ZM37 40L36.2929 40.7071C36.6834 41.0976 37.3166 41.0976 37.7071 40.7071L37 40ZM41.7071 36.7071C42.0976 36.3166 42.0976 35.6834 41.7071 35.2929C41.3166 34.9024 40.6834 34.9024 40.2929 35.2929L41.7071 36.7071ZM33.7071 35.2929C33.3166 34.9024 32.6834 34.9024 32.2929 35.2929C31.9024 35.6834 31.9024 36.3166 32.2929 36.7071L33.7071 35.2929ZM28 36V24H26V36H28ZM23.7071 28.7071L27.7071 24.7071L26.2929 23.2929L22.2929 27.2929L23.7071 28.7071ZM26.2929 24.7071L30.2929 28.7071L31.7071 27.2929L27.7071 23.2929L26.2929 24.7071ZM36 28V40H38V28H36ZM40.2929 35.2929L36.2929 39.2929L37.7071 40.7071L41.7071 36.7071L40.2929 35.2929ZM37.7071 39.2929L33.7071 35.2929L32.2929 36.7071L36.2929 40.7071L37.7071 39.2929Z" fill="#3D3B39"/>
</svg>
