<svg width="64" height="64" viewBox="0 0 64 64" fill="none" xmlns="http://www.w3.org/2000/svg">
<path d="M39.9975 27.0712C40.0368 26.5204 39.6221 26.0419 39.0712 26.0025C38.5204 25.9632 38.0419 26.3779 38.0025 26.9288L39.9975 27.0712ZM38.1327 39.1425L37.1352 39.0712L38.1327 39.1425ZM25.8673 39.1425L26.8648 39.0712L25.8673 39.1425ZM25.9975 26.9288C25.9581 26.3779 25.4796 25.9632 24.9288 26.0025C24.3779 26.0419 23.9632 26.5204 24.0025 27.0712L25.9975 26.9288ZM31 31C31 30.4477 30.5523 30 30 30C29.4477 30 29 30.4477 29 31H31ZM29 37C29 37.5523 29.4477 38 30 38C30.5523 38 31 37.5523 31 37H29ZM35 31C35 30.4477 34.5523 30 34 30C33.4477 30 33 30.4477 33 31H35ZM33 37C33 37.5523 33.4477 38 34 38C34.5523 38 35 37.5523 35 37H33ZM34 27C34 27.5523 34.4477 28 35 28C35.5523 28 36 27.5523 36 27H34ZM28 27C28 27.5523 28.4477 28 29 28C29.5523 28 30 27.5523 30 27H28ZM24 26C23.4477 26 23 26.4477 23 27C23 27.5523 23.4477 28 24 28V26ZM40 28C40.5523 28 41 27.5523 41 27C41 26.4477 40.5523 26 40 26V28ZM38.0025 26.9288L37.1352 39.0712L39.1301 39.2137L39.9975 27.0712L38.0025 26.9288ZM36.1378 40H27.8622V42H36.1378V40ZM26.8648 39.0712L25.9975 26.9288L24.0025 27.0712L24.8699 39.2137L26.8648 39.0712ZM27.8622 40C27.3376 40 26.9022 39.5946 26.8648 39.0712L24.8699 39.2137C24.982 40.7837 26.2883 42 27.8622 42V40ZM37.1352 39.0712C37.0978 39.5946 36.6624 40 36.1378 40V42C37.7117 42 39.018 40.7837 39.1301 39.2137L37.1352 39.0712ZM29 31V37H31V31H29ZM33 31V37H35V31H33ZM30 24H34V22H30V24ZM34 24V27H36V24H34ZM30 27V24H28V27H30ZM34 24H36C36 22.8954 35.1046 22 34 22V24ZM30 22C28.8954 22 28 22.8954 28 24H30V22ZM24 28H40V26H24V28Z" fill="#3D3B39"/>
</svg>
