<svg width="18" height="18" viewBox="0 0 18 18" fill="none" xmlns="http://www.w3.org/2000/svg">
<path d="M2 13C2 12.4477 1.55228 12 1 12C0.447715 12 -1.98987e-07 12.4477 -1.74846e-07 13L2 13ZM18 13C18 12.4477 17.5523 12 17 12C16.4477 12 16 12.4477 16 13L18 13ZM13.7071 9.70711C14.0976 9.31658 14.0976 8.68342 13.7071 8.29289C13.3166 7.90237 12.6834 7.90237 12.2929 8.29289L13.7071 9.70711ZM9 13L8.29289 13.7071C8.68342 14.0976 9.31658 14.0976 9.70711 13.7071L9 13ZM5.70711 8.29289C5.31658 7.90237 4.68342 7.90237 4.29289 8.29289C3.90237 8.68342 3.90237 9.31658 4.29289 9.70711L5.70711 8.29289ZM10 1C10 0.447715 9.55228 -3.73832e-07 9 -3.49691e-07C8.44771 -3.2555e-07 8 0.447715 8 1L10 1ZM14 16L4 16L4 18L14 18L14 16ZM2 14L2 13L-1.74846e-07 13L-1.31134e-07 14L2 14ZM16 13L16 14L18 14L18 13L16 13ZM14 18C16.2091 18 18 16.2091 18 14L16 14C16 15.1046 15.1046 16 14 16L14 18ZM4 16C2.89543 16 2 15.1046 2 14L-1.31134e-07 14C-3.45696e-08 16.2091 1.79086 18 4 18L4 16ZM12.2929 8.29289L8.29289 12.2929L9.70711 13.7071L13.7071 9.70711L12.2929 8.29289ZM9.70711 12.2929L5.70711 8.29289L4.29289 9.70711L8.29289 13.7071L9.70711 12.2929ZM10 13L10 1L8 1L8 13L10 13Z" fill="#ffffff"/>
</svg>
